<?xml version="1.0" encoding="utf-8"?>
<!-- Generator: Adobe Illustrator 22.1.0, SVG Export Plug-In . SVG Version: 6.00 Build 0)  -->
<svg version="1.1" id="Layer_1" xmlns="http://www.w3.org/2000/svg" xmlns:xlink="http://www.w3.org/1999/xlink" x="0px" y="0px"
	 viewBox="0 0 60.9 9.9" style="enable-background:new 0 0 60.9 9.9;" xml:space="preserve">
<style type="text/css">
	.st0{fill-rule:evenodd;clip-rule:evenodd;fill:#E57373;}
</style>
<path class="st0" d="M5.3,0L7,3.1l3.5,0.7L8.1,6.4l0.4,3.5L5.3,8.4L2,9.9l0.4-3.5L0,3.8l3.5-0.7L5.3,0"/>
<path class="st0" d="M17.9,0l1.7,3.1l3.5,0.7l-2.5,2.6l0.4,3.5l-3.3-1.5l-3.3,1.5l0.4-3.5l-2.5-2.6l3.5-0.7L17.9,0"/>
<path class="st0" d="M30.5,0l1.7,3.1l3.5,0.7l-2.5,2.6l0.4,3.5l-3.3-1.5l-3.3,1.5l0.4-3.5l-2.5-2.6l3.5-0.7L30.5,0"/>
<path class="st0" d="M43.1,0l1.7,3.1l3.5,0.7l-2.5,2.6l0.4,3.5l-3.3-1.5l-3.3,1.5l0.4-3.5l-2.5-2.6l3.5-0.7L43.1,0"/>
<path class="st0" d="M55.7,0l1.7,3.1l3.5,0.7l-2.5,2.6l0.4,3.5l-3.3-1.5l-3.3,1.5l0.4-3.5l-2.5-2.6l3.5-0.7L55.7,0"/>
</svg>
